# xmcd
#
# Track frame offsets:
#	150
#	13562
#	26412
#	39347
#	53902
#	70780
#	85645
#	105627
#	119350
#	130200
#	144355
#	158545
#
# Disc length: 2320
#
# Revision: 1
# Processed by: cddbd v1.5.1PL0 Copyright (c) Steve Scherf et al.
# Submitted via: audiograbber 1.81.03
# Normalized: r0:DSETVAR1
#
DISCID=8c090e0c
DTITLE=Various Artist - Kickin' Country
DYEAR=1997
DGENRE=Country
TTITLE0=Waylon Jennings - Are You Sure Hank Done It This Way
TTITLE1=Sawyer Brown - Step That Step
TTITLE2=Tanya Tucker - San Antonio Stroll
TTITLE3=Marty Stuart - Little Things
TTITLE4=Carlene Carter - I Fell in Love
TTITLE5=Earl Thomas Conley - Fire and Smoke
TTITLE6=K.T. Oslin - Hey Bobby
TTITLE7=Suzy Bogguss - Yellow River Road
TTITLE8=Ricky Van Shelton - From a Jack to a King
TTITLE9=Steve Wariner - Lynda
TTITLE10=Sweethearts of the Rodeo - Midnight Gril/Sunset Town
TTITLE11=Juice Newton - Queen of Hearts
EXTD=
EXTT0=
EXTT1=
EXTT2=
EXTT3=
EXTT4=
EXTT5=
EXTT6=
EXTT7=
EXTT8=
EXTT9=
EXTT10=
EXTT11=
PLAYORDER=
